# xmcd CD database file
#
# Track frame offsets:
#	182
#	26022
#	46890
#	69430
#	84572
#	108275
#	119852
#	160245
#	186870
#	215937
#
# Disc length: 3186 seconds
#
# Revision: 0
# Processed by: cddbd v1.5.1PL0 Copyright (c) Steve Scherf et al.
# Submitted via: CDex 1.51
#
DISCID=900c700a
DTITLE=the modern jazz quartet - best of european concert
DYEAR=1994
DGENRE=Jazz
TTITLE0=DJANGO
TTITLE1=BLUESOLOGY
TTITLE2=I'LL REMEMBER APRIL
TTITLE3=LA RONDE
TTITLE4=I REMEMBER CLIFFORD
TTITLE5=VENDOME
TTITLE6=PYRAMID
TTITLE7=IT DON'T MEAN A THING
TTITLE8=THE CYLINDER
TTITLE9=BAGS' GROOVE
EXTD=YEAR: 1994
EXTT0=
EXTT1=
EXTT2=
EXTT3=
EXTT4=
EXTT5=
EXTT6=
EXTT7=
EXTT8=
EXTT9=
PLAYORDER=
